<?xml version="1.0" encoding="UTF-8" standalone="no"?>
<!-- Created with Inkscape (http://www.inkscape.org/) -->

<svg
   xmlns:dc="http://purl.org/dc/elements/1.1/"
   xmlns:cc="http://creativecommons.org/ns#"
   xmlns:rdf="http://www.w3.org/1999/02/22-rdf-syntax-ns#"
   xmlns:svg="http://www.w3.org/2000/svg"
   xmlns="http://www.w3.org/2000/svg"
   xmlns:xlink="http://www.w3.org/1999/xlink"
   xmlns:sodipodi="http://sodipodi.sourceforge.net/DTD/sodipodi-0.dtd"
   xmlns:inkscape="http://www.inkscape.org/namespaces/inkscape"
   width="144"
   height="144"
   viewBox="0 0 38.1 38.1"
   version="1.1"
   id="svg8"
   inkscape:version="0.92.4 (5da689c313, 2019-01-14)"
   sodipodi:docname="main.svg">
  <defs
     id="defs2">
    <linearGradient
       id="linearGradient5320"
       inkscape:collect="always">
      <stop
         id="stop5316"
         offset="0"
         style="stop-color:#ffffff;stop-opacity:0.78431374" />
      <stop
         id="stop5318"
         offset="1"
         style="stop-color:#ffffff;stop-opacity:0" />
    </linearGradient>
    <linearGradient
       inkscape:collect="always"
       id="linearGradient5259">
      <stop
         style="stop-color:#c8c8c8;stop-opacity:1"
         offset="0"
         id="stop5255" />
      <stop
         style="stop-color:#000000;stop-opacity:1"
         offset="1"
         id="stop5257" />
    </linearGradient>
    <linearGradient
       id="linearGradient5251"
       inkscape:collect="always">
      <stop
         id="stop5247"
         offset="0"
         style="stop-color:#ff0000;stop-opacity:0.09803922" />
      <stop
         id="stop5249"
         offset="1"
         style="stop-color:#e1c800;stop-opacity:0.09803922" />
    </linearGradient>
    <linearGradient
       inkscape:collect="always"
       id="linearGradient5219">
      <stop
         style="stop-color:#ff0000;stop-opacity:1"
         offset="0"
         id="stop5215" />
      <stop
         style="stop-color:#c8ff00;stop-opacity:1"
         offset="1"
         id="stop5217" />
    </linearGradient>
    <linearGradient
       inkscape:collect="always"
       id="linearGradient4564">
      <stop
         style="stop-color:#ffc864;stop-opacity:1"
         offset="0"
         id="stop4560" />
      <stop
         style="stop-color:#ffffff;stop-opacity:1"
         offset="1"
         id="stop4562" />
    </linearGradient>
    <linearGradient
       inkscape:collect="always"
       xlink:href="#linearGradient4564"
       id="linearGradient4566"
       x1="77.737106"
       y1="120.7371"
       x2="49.407795"
       y2="83.241859"
       gradientUnits="userSpaceOnUse"
       gradientTransform="scale(3.7795276)" />
    <radialGradient
       inkscape:collect="always"
       xlink:href="#linearGradient5219"
       id="radialGradient5221"
       cx="673.19348"
       cy="215.70638"
       fx="673.19348"
       fy="215.70638"
       r="48.011715"
       gradientTransform="matrix(0.38275773,-0.1598741,0.15380546,0.36822872,-273.70404,304.12496)"
       gradientUnits="userSpaceOnUse" />
    <linearGradient
       inkscape:collect="always"
       xlink:href="#linearGradient5251"
       id="linearGradient5253"
       x1="186.85921"
       y1="65.725815"
       x2="176.57532"
       y2="43.24638"
       gradientUnits="userSpaceOnUse"
       gradientTransform="matrix(1.3472957,0,0,1.3472957,-221.94368,205.46146)" />
    <linearGradient
       inkscape:collect="always"
       xlink:href="#linearGradient5259"
       id="linearGradient5261"
       x1="164.98216"
       y1="39.35318"
       x2="190.38869"
       y2="64.258064"
       gradientUnits="userSpaceOnUse"
       gradientTransform="matrix(1.3472957,0,0,1.3472957,-222.252,206.13058)" />
    <radialGradient
       inkscape:collect="always"
       xlink:href="#linearGradient5320"
       id="radialGradient5221-6"
       cx="673.19348"
       cy="215.70638"
       fx="673.19348"
       fy="215.70638"
       r="48.011715"
       gradientTransform="matrix(0.05756957,-0.02890684,0.02663461,0.05304428,133.63026,59.814741)"
       gradientUnits="userSpaceOnUse" />
    <radialGradient
       inkscape:collect="always"
       xlink:href="#linearGradient5320"
       id="radialGradient5332"
       gradientUnits="userSpaceOnUse"
       gradientTransform="matrix(0.05756957,-0.02890684,0.02663461,0.05304428,133.63026,59.814741)"
       cx="673.19348"
       cy="215.70638"
       fx="673.19348"
       fy="215.70638"
       r="48.011715" />
  </defs>
  <sodipodi:namedview
     id="base"
     pagecolor="#ffffff"
     bordercolor="#666666"
     borderopacity="1.0"
     inkscape:pageopacity="0.0"
     inkscape:pageshadow="2"
     inkscape:zoom="2.5804941"
     inkscape:cx="-43.358185"
     inkscape:cy="81.762253"
     inkscape:document-units="mm"
     inkscape:current-layer="layer1"
     showgrid="false"
     inkscape:window-width="1920"
     inkscape:window-height="1017"
     inkscape:window-x="-8"
     inkscape:window-y="-8"
     inkscape:window-maximized="1"
     inkscape:snap-text-baseline="true"
     inkscape:snap-bbox="true"
     inkscape:snap-bbox-midpoints="true"
     inkscape:snap-bbox-edge-midpoints="true"
     inkscape:bbox-nodes="true"
     showguides="false"
     inkscape:guide-bbox="true"
     units="px"
     width="240px">
    <sodipodi:guide
       position="50.270832,172.64063"
       orientation="0,1"
       id="guide4724"
       inkscape:locked="false" />
    <sodipodi:guide
       position="50.270832,170.08929"
       orientation="0,1"
       id="guide4728"
       inkscape:locked="false" />
    <sodipodi:guide
       position="309.53152,197.10994"
       orientation="0,1"
       inkscape:locked="false"
       id="guide1051" />
    <sodipodi:guide
       position="309.53152,186.08775"
       orientation="0,1"
       inkscape:locked="false"
       id="guide1369" />
  </sodipodi:namedview>
  <metadata
     id="metadata5">
    <rdf:RDF>
      <cc:Work
         rdf:about="">
        <dc:format>image/svg+xml</dc:format>
        <dc:type
           rdf:resource="http://purl.org/dc/dcmitype/StillImage" />
        <dc:title />
      </cc:Work>
    </rdf:RDF>
  </metadata>
  <g
     inkscape:label="Layer 1"
     inkscape:groupmode="layer"
     id="layer1"
     transform="translate(0,-258.9)">
    <path
       inkscape:connector-curvature="0"
       style="fill:url(#linearGradient5253);fill-opacity:1;stroke:none;stroke-width:0.35647199;stroke-linecap:round;stroke-linejoin:miter;stroke-miterlimit:4;stroke-dasharray:none;stroke-opacity:1;paint-order:markers fill stroke"
       d="m 17.199641,263.41042 a 1.3472958,1.3472958 0 0 0 -1.347216,1.34722 1.3472958,1.3472958 0 0 0 1.347216,1.34723 1.3472958,1.3472958 0 0 0 0.05632,-0.003 l 0.7777,2.94368 a 2.0209436,2.0209436 0 0 0 -1.116058,0.87655 l -5.271199,-1.43146 a 1.3472958,1.3472958 0 0 0 -1.333283,-1.16549 1.3472958,1.3472958 0 0 0 -1.3479038,1.34722 1.3472958,1.3472958 0 0 0 1.3054348,1.34583 l 1.072894,5.52878 a 2.0209436,2.0209436 0 0 0 -0.951056,1.05271 l -3.4171219,-0.88283 a 1.3472958,1.3472958 0 0 0 0.00412,-0.0676 1.3472958,1.3472958 0 0 0 -1.3472171,-1.3472 1.3472958,1.3472958 0 0 0 -1.3472147,1.3472 1.3472958,1.3472958 0 0 0 1.3472147,1.34722 1.3472958,1.3472958 0 0 0 1.1703697,-0.68232 l 3.4540223,0.89257 a 2.0209436,2.0209436 0 0 0 -0.0067,0.13576 2.0209436,2.0209436 0 0 0 0.269432,1.0033 l -3.8919465,4.34588 a 1.3472958,1.3472958 0 0 0 -0.7700336,-0.24228 1.3472958,1.3472958 0 0 0 -1.3472162,1.34721 1.3472958,1.3472958 0 0 0 1.3472162,1.34721 1.3472958,1.3472958 0 0 0 1.159226,-0.66419 l 5.8316621,1.58323 a 2.0209436,2.0209436 0 0 0 -0.01536,0.23531 2.0209436,2.0209436 0 0 0 0.396159,1.19753 l -2.434723,2.39576 a 1.3472958,1.3472958 0 0 0 -0.615471,-0.1504 1.3472958,1.3472958 0 0 0 -1.3479143,1.34722 1.3472958,1.3472958 0 0 0 1.3479143,1.34721 1.3472958,1.3472958 0 0 0 1.347214,-1.34721 1.3472958,1.3472958 0 0 0 -0.257617,-0.78954 l 2.402712,-2.3651 a 2.0209436,2.0209436 0 0 0 1.182897,0.38501 2.0209436,2.0209436 0 0 0 0.410779,-0.0438 l 1.503178,5.57545 a 1.3472958,1.3472958 0 0 0 -0.960109,1.28873 1.3472958,1.3472958 0 0 0 1.347215,1.34791 1.3472958,1.3472958 0 0 0 1.347215,-1.34791 1.3472958,1.3472958 0 0 0 -0.231155,-0.75264 l 4.370962,-3.85712 a 2.0209436,2.0209436 0 0 0 1.067329,0.3683 l 0.861935,3.19712 a 1.3472958,1.3472958 0 0 0 -0.675343,1.16547 1.3472958,1.3472958 0 0 0 1.347212,1.34724 1.3472958,1.3472958 0 0 0 1.347213,-1.34724 1.3472958,1.3472958 0 0 0 -1.347213,-1.3472 1.3472958,1.3472958 0 0 0 -0.07588,0.003 l -0.831363,-3.08433 a 2.0209436,2.0209436 0 0 0 1.199622,-0.90372 l 5.247518,1.4245 a 1.3472958,1.3472958 0 0 0 1.347212,1.33955 1.3472958,1.3472958 0 0 0 1.347221,-1.34791 1.3472958,1.3472958 0 0 0 -1.347221,-1.34721 1.3472958,1.3472958 0 0 0 -0.394769,0.0607 l -1.084055,-5.58451 a 2.0209436,2.0209436 0 0 0 1.368803,-1.12929 l 3.450533,0.89119 a 1.3472958,1.3472958 0 0 0 -0.0069,0.13298 1.3472958,1.3472958 0 0 0 1.347212,1.34721 1.3472958,1.3472958 0 0 0 1.347213,-1.34721 1.3472958,1.3472958 0 0 0 -1.347213,-1.34722 1.3472958,1.3472958 0 0 0 -1.135558,0.62521 l -3.488136,-0.90092 a 2.0209436,2.0209436 0 0 0 0.01534,-0.23534 2.0209436,2.0209436 0 0 0 -0.697633,-1.52542 l 4.215,-3.72 -0.05708,-0.0648 a 1.3472958,1.3472958 0 0 0 0.923205,0.36831 1.3472958,1.3472958 0 0 0 1.347212,-1.34722 1.3472958,1.3472958 0 0 0 -1.347212,-1.34721 1.3472958,1.3472958 0 0 0 -1.341635,1.24625 l -5.73134,-1.92504 a 2.0209436,2.0209436 0 0 0 0.105893,-0.64055 2.0209436,2.0209436 0 0 0 -0.39546,-1.19752 l 2.325419,-2.28853 a 1.3472958,1.3472958 0 0 0 0.716429,0.20818 1.3472958,1.3472958 0 0 0 1.347212,-1.34721 1.3472958,1.3472958 0 0 0 -1.347212,-1.34721 1.3472958,1.3472958 0 0 0 -1.34722,1.34721 1.3472958,1.3472958 0 0 0 0.194254,0.69554 l -2.330298,2.29338 a 2.0209436,2.0209436 0 0 0 -1.183593,-0.38501 2.0209436,2.0209436 0 0 0 -0.09755,0.004 l -1.488542,-5.52183 a 1.3472958,1.3472958 0 0 0 0.623118,-1.13696 1.3472958,1.3472958 0 0 0 -1.347212,-1.34721 1.3472958,1.3472958 0 0 0 -1.347213,1.34721 1.3472958,1.3472958 0 0 0 0.137165,0.5911 L 19.6847,269.24202 A 2.0209436,2.0209436 0 0 0 18.652876,268.951 l -0.797884,-3.01817 a 1.3472958,1.3472958 0 0 0 0.692752,-1.17524 1.3472958,1.3472958 0 0 0 -1.347214,-1.34723 z m 7.27355,2.53847 a 1.3472958,1.3472958 0 0 0 0.814605,0.27642 1.3472958,1.3472958 0 0 0 0.134328,-0.007 l 1.467659,5.44524 a 2.0209436,2.0209436 0 0 0 -1.001893,0.81808 l -5.297646,-2.04624 a 2.0209436,2.0209436 0 0 0 -0.424006,-0.78678 z m -12.890773,3.16996 5.096438,1.38412 a 2.0209436,2.0209436 0 0 0 -0.05779,0.46856 2.0209436,2.0209436 0 0 0 0.288939,1.03669 l -3.756179,3.52086 a 2.0209436,2.0209436 0 0 0 -0.883528,-0.20678 2.0209436,2.0209436 0 0 0 -0.332094,0.0285 l -1.058275,-5.45709 a 1.3472958,1.3472958 0 0 0 0.702495,-0.77492 z m 9.072633,2.00725 4.987824,1.92648 a 2.0209436,2.0209436 0 0 0 -0.06613,0.50199 2.0209436,2.0209436 0 0 0 0.184503,0.83756 l -3.162309,3.2194 a 2.6945916,2.6945916 0 0 0 -1.373663,-0.37948 2.6945916,2.6945916 0 0 0 -0.146209,0.005 l -1.280377,-4.61182 a 2.0209436,2.0209436 0 0 0 0.856369,-1.49968 z m -3.346804,1.36114 a 2.0209436,2.0209436 0 0 0 1.333984,0.50477 2.0209436,2.0209436 0 0 0 0.05847,-0.003 l 1.264371,4.55685 a 2.6945916,2.6945916 0 0 0 -1.140434,1.16271 l -4.54292,-1.17313 a 2.0209436,2.0209436 0 0 0 0.0094,-0.19286 2.0209436,2.0209436 0 0 0 -0.616174,-1.44956 z m 11.913964,2.26554 6.085783,2.04554 0.02638,-0.0786 a 1.3472958,1.3472958 0 0 0 0.163619,0.29382 l -0.190081,-0.21514 -4.35633,3.84462 a 2.0209436,2.0209436 0 0 0 -0.770732,-0.15388 2.0209436,2.0209436 0 0 0 -0.264571,0.0195 l -0.881429,-5.53573 a 2.0209436,2.0209436 0 0 0 0.187287,-0.22003 z m -2.697907,0.51174 a 2.0209436,2.0209436 0 0 0 1.073588,0.31121 2.0209436,2.0209436 0 0 0 0.871693,-0.19983 l 0.845223,5.3102 a 2.0209436,2.0209436 0 0 0 -0.786736,0.66281 l 0.03207,-0.12396 -4.644594,-1.19961 a 2.6945916,2.6945916 0 0 0 0.0052,-0.0989 2.6945916,2.6945916 0 0 0 -0.476914,-1.52475 z m -12.601151,3.23888 -0.03207,0.1253 4.644588,1.20031 a 2.6945916,2.6945916 0 0 0 -0.0054,0.0976 2.6945916,2.6945916 0 0 0 0.404513,1.41543 l -3.122613,3.17833 a 2.0209436,2.0209436 0 0 0 -0.959452,-0.2423 2.0209436,2.0209436 0 0 0 -0.8487,0.18937 l -0.845927,-5.31018 a 2.0209436,2.0209436 0 0 0 0.764468,-0.65376 z m -3.009116,0.33488 a 2.0209436,2.0209436 0 0 0 1.356254,0.52635 2.0209436,2.0209436 0 0 0 0.288239,-0.023 l 0.878653,5.51628 a 2.0209436,2.0209436 0 0 0 -0.42192,0.60642 l -5.8156409,-1.57836 a 1.3472958,1.3472958 0 0 0 0.00412,-0.0883 1.3472958,1.3472958 0 0 0 -0.1608283,-0.63635 z m 12.712541,2.30524 4.54292,1.17385 a 2.0209436,2.0209436 0 0 0 -0.0094,0.19285 2.0209436,2.0209436 0 0 0 0.533315,1.36393 l -3.643385,3.41573 a 2.0209436,2.0209436 0 0 0 -1.240698,-0.42889 2.0209436,2.0209436 0 0 0 -0.05848,0.003 l -1.265055,-4.55616 a 2.6945916,2.6945916 0 0 0 1.14113,-1.1634 z m -3.887084,1.02903 a 2.6945916,2.6945916 0 0 0 1.485773,0.44906 2.6945916,2.6945916 0 0 0 0.147596,-0.005 l 1.279674,4.61118 a 2.0209436,2.0209436 0 0 0 -0.838261,1.3451 l -4.972504,-1.92093 a 2.0209436,2.0209436 0 0 0 0.03274,-0.3523 2.0209436,2.0209436 0 0 0 -0.245071,-0.9608 z m 9.443727,2.09357 a 2.0209436,2.0209436 0 0 0 0.99771,0.26456 2.0209436,2.0209436 0 0 0 0.268744,-0.0202 l -0.409384,0.0794 1.1279,5.81355 a 1.3472958,1.3472958 0 0 0 -0.243686,0.34325 l -5.151439,-1.39803 a 2.0209436,2.0209436 0 0 0 0.05647,-0.46648 2.0209436,2.0209436 0 0 0 -0.354382,-1.13904 z m -12.543354,2.97362 5.180676,2.00097 a 2.0209436,2.0209436 0 0 0 0.374574,0.85498 l -4.384182,3.86827 a 1.3472958,1.3472958 0 0 0 -0.40939,-0.14759 l -1.552609,-5.76135 a 2.0209436,2.0209436 0 0 0 0.790931,-0.81528 z"
       id="path4681-4"
       inkscape:export-xdpi="96"
       inkscape:export-ydpi="96" />
    <path
       style="fill:url(#radialGradient5221);fill-opacity:1;stroke:url(#linearGradient5261);stroke-width:0.35647199;stroke-linecap:round;stroke-linejoin:miter;stroke-miterlimit:4;stroke-dasharray:none;stroke-opacity:1;paint-order:markers fill stroke"
       d="m 13.12051,259.32919 a 1.3472958,1.3472958 0 0 0 -1.347215,1.3472 1.3472958,1.3472958 0 0 0 1.347215,1.3472 1.3472958,1.3472958 0 0 0 0.05646,-0.003 l 0.777701,2.94368 a 2.0209436,2.0209436 0 0 0 -1.116075,0.87656 l -5.2711874,-1.43146 a 1.3472958,1.3472958 0 0 0 -1.3332833,-1.16549 1.3472958,1.3472958 0 0 0 -1.3479156,1.34721 1.3472958,1.3472958 0 0 0 1.3054369,1.34582 l 1.0729024,5.5288 a 2.0209436,2.0209436 0 0 0 -0.9510542,1.05271 l -3.4171183,-0.88283 a 1.3472958,1.3472958 0 0 0 0.00408,-0.0676 1.3472958,1.3472958 0 0 0 -1.3472144,-1.34721 1.3472958,1.3472958 0 0 0 -1.34721567,1.34721 1.3472958,1.3472958 0 0 0 1.34721567,1.34722 1.3472958,1.3472958 0 0 0 1.170368,-0.68231 l 3.4540219,0.89257 a 2.0209436,2.0209436 0 0 0 -0.00669,0.13576 2.0209436,2.0209436 0 0 0 0.2694459,1.00329 L 2.54845,278.61033 a 1.3472958,1.3472958 0 0 0 -0.7700357,-0.24245 1.3472958,1.3472958 0 0 0 -1.34721475,1.34723 1.3472958,1.3472958 0 0 0 1.34721475,1.34722 1.3472958,1.3472958 0 0 0 1.1592277,-0.66423 l 5.8316617,1.58323 a 2.0209436,2.0209436 0 0 0 -0.015354,0.23535 2.0209436,2.0209436 0 0 0 0.396158,1.19752 l -2.4347391,2.39574 a 1.3472958,1.3472958 0 0 0 -0.6154711,-0.15039 1.3472958,1.3472958 0 0 0 -1.3479032,1.34722 1.3472958,1.3472958 0 0 0 1.3479032,1.34721 1.3472958,1.3472958 0 0 0 1.3472156,-1.34721 1.3472958,1.3472958 0 0 0 -0.2576038,-0.78954 l 2.4027023,-2.3651 a 2.0209436,2.0209436 0 0 0 1.1829114,0.38502 2.0209436,2.0209436 0 0 0 0.410775,-0.0438 l 1.503165,5.57544 a 1.3472958,1.3472958 0 0 0 -0.96011,1.28874 1.3472958,1.3472958 0 0 0 1.347217,1.34791 1.3472958,1.3472958 0 0 0 1.347214,-1.34791 1.3472958,1.3472958 0 0 0 -0.231156,-0.75264 l 4.370962,-3.85714 a 2.0209436,2.0209436 0 0 0 1.067327,0.36831 l 0.861947,3.1971 a 1.3472958,1.3472958 0 0 0 -0.675359,1.16551 1.3472958,1.3472958 0 0 0 1.347216,1.34721 1.3472958,1.3472958 0 0 0 1.347213,-1.34721 1.3472958,1.3472958 0 0 0 -1.347213,-1.34722 1.3472958,1.3472958 0 0 0 -0.07585,0.003 l -0.831307,-3.08433 a 2.0209436,2.0209436 0 0 0 1.199603,-0.90371 l 5.24753,1.42451 a 1.3472958,1.3472958 0 0 0 1.347212,1.33956 1.3472958,1.3472958 0 0 0 1.347221,-1.34792 1.3472958,1.3472958 0 0 0 -1.347221,-1.34721 1.3472958,1.3472958 0 0 0 -0.394768,0.0607 l -1.084038,-5.5845 a 2.0209436,2.0209436 0 0 0 1.368802,-1.1293 l 3.450534,0.89118 a 1.3472958,1.3472958 0 0 0 -0.0069,0.13298 1.3472958,1.3472958 0 0 0 1.347211,1.34722 1.3472958,1.3472958 0 0 0 1.347212,-1.34722 1.3472958,1.3472958 0 0 0 -1.347212,-1.3472 1.3472958,1.3472958 0 0 0 -1.135557,0.62521 l -3.488128,-0.90092 a 2.0209436,2.0209436 0 0 0 0.01534,-0.23533 2.0209436,2.0209436 0 0 0 -0.697632,-1.52544 l 4.214999,-3.71999 -0.05708,-0.0648 a 1.3472958,1.3472958 0 0 0 0.923203,0.36832 1.3472958,1.3472958 0 0 0 1.347221,-1.34722 1.3472958,1.3472958 0 0 0 -1.347221,-1.34723 1.3472958,1.3472958 0 0 0 -1.341642,1.24627 l -5.731401,-1.92509 a 2.0209436,2.0209436 0 0 0 0.105899,-0.64053 2.0209436,2.0209436 0 0 0 -0.395472,-1.19752 l 2.325434,-2.28853 a 1.3472958,1.3472958 0 0 0 0.716421,0.20818 1.3472958,1.3472958 0 0 0 1.34722,-1.34722 1.3472958,1.3472958 0 0 0 -1.34722,-1.34721 1.3472958,1.3472958 0 0 0 -1.347212,1.34721 1.3472958,1.3472958 0 0 0 0.194254,0.69553 l -2.3303,2.2934 a 2.0209436,2.0209436 0 0 0 -1.183599,-0.38501 2.0209436,2.0209436 0 0 0 -0.09754,0.004 l -1.488547,-5.52184 a 1.3472958,1.3472958 0 0 0 0.623125,-1.13695 1.3472958,1.3472958 0 0 0 -1.347216,-1.34721 1.3472958,1.3472958 0 0 0 -1.347214,1.34721 1.3472958,1.3472958 0 0 0 0.137168,0.59111 l -4.395001,3.7729 a 2.0209436,2.0209436 0 0 0 -1.031862,-0.29068 l -0.797877,-3.01815 a 1.3472958,1.3472958 0 0 0 0.692749,-1.17526 1.3472958,1.3472958 0 0 0 -1.347213,-1.3472 z m 7.273563,2.53845 a 1.3472958,1.3472958 0 0 0 0.814586,0.27641 1.3472958,1.3472958 0 0 0 0.134328,-0.007 l 1.467662,5.44525 a 2.0209436,2.0209436 0 0 0 -1.00189,0.81806 l -5.297648,-2.04623 a 2.0209436,2.0209436 0 0 0 -0.424009,-0.78674 z m -12.8907765,3.16997 5.0964275,1.3841 a 2.0209436,2.0209436 0 0 0 -0.0578,0.46858 2.0209436,2.0209436 0 0 0 0.288939,1.03668 l -3.7561795,3.52087 a 2.0209436,2.0209436 0 0 0 -0.8835293,-0.20678 2.0209436,2.0209436 0 0 0 -0.3321082,0.0285 l -1.058275,-5.45709 a 1.3472958,1.3472958 0 0 0 0.7025081,-0.77487 z m 9.0726185,2.00725 4.987826,1.92646 a 2.0209436,2.0209436 0 0 0 -0.06615,0.50199 2.0209436,2.0209436 0 0 0 0.184499,0.83757 l -3.162293,3.2194 a 2.6945916,2.6945916 0 0 0 -1.373676,-0.37946 2.6945916,2.6945916 0 0 0 -0.146207,0.005 l -1.280376,-4.61186 a 2.0209436,2.0209436 0 0 0 0.856368,-1.4997 z m -3.346787,1.36112 a 2.0209436,2.0209436 0 0 0 1.333982,0.50476 2.0209436,2.0209436 0 0 0 0.05848,-0.003 l 1.264368,4.55685 a 2.6945916,2.6945916 0 0 0 -1.140432,1.1627 l -4.54293,-1.17313 a 2.0209436,2.0209436 0 0 0 0.0094,-0.19287 2.0209436,2.0209436 0 0 0 -0.6161717,-1.44955 z m 11.91396,2.26554 6.085775,2.04555 0.02638,-0.0787 a 1.3472958,1.3472958 0 0 0 0.163618,0.29382 l -0.190081,-0.21516 -4.356329,3.84462 a 2.0209436,2.0209436 0 0 0 -0.770734,-0.15388 2.0209436,2.0209436 0 0 0 -0.264569,0.0195 l -0.881428,-5.53576 a 2.0209436,2.0209436 0 0 0 0.187289,-0.22001 z m -2.697907,0.51173 a 2.0209436,2.0209436 0 0 0 1.073594,0.31124 2.0209436,2.0209436 0 0 0 0.871686,-0.19982 l 0.845226,5.31016 a 2.0209436,2.0209436 0 0 0 -0.786753,0.66282 l 0.03207,-0.12395 -4.644587,-1.19963 a 2.6945916,2.6945916 0 0 0 0.0054,-0.0989 2.6945916,2.6945916 0 0 0 -0.476931,-1.52474 z m -12.6011463,3.23889 -0.032072,0.12529 4.6445723,1.20031 a 2.6945916,2.6945916 0 0 0 -0.0054,0.0975 2.6945916,2.6945916 0 0 0 0.404511,1.41546 l -3.122611,3.1783 a 2.0209436,2.0209436 0 0 0 -0.959409,-0.24229 2.0209436,2.0209436 0 0 0 -0.8487152,0.18937 L 9.078983,275.0759 a 2.0209436,2.0209436 0 0 0 0.7644689,-0.65375 z m -3.0091323,0.33491 a 2.0209436,2.0209436 0 0 0 1.3562701,0.52633 2.0209436,2.0209436 0 0 0 0.2882397,-0.0229 l 0.8786538,5.51629 a 2.0209436,2.0209436 0 0 0 -0.42192,0.60642 l -5.8156433,-1.57834 a 1.3472958,1.3472958 0 0 0 0.00408,-0.0883 1.3472958,1.3472958 0 0 0 -0.1608406,-0.63635 z m 12.7125426,2.3052 4.542933,1.17386 a 2.0209436,2.0209436 0 0 0 -0.0094,0.19286 2.0209436,2.0209436 0 0 0 0.533312,1.36393 l -3.643398,3.41571 a 2.0209436,2.0209436 0 0 0 -1.240686,-0.42887 2.0209436,2.0209436 0 0 0 -0.05847,0.003 l -1.265056,-4.55615 a 2.6945916,2.6945916 0 0 0 1.141118,-1.16341 z m -3.88707,1.02905 a 2.6945916,2.6945916 0 0 0 1.485759,0.44906 2.6945916,2.6945916 0 0 0 0.147608,-0.005 l 1.279676,4.61116 a 2.0209436,2.0209436 0 0 0 -0.838262,1.34514 l -4.972502,-1.92092 a 2.0209436,2.0209436 0 0 0 0.03274,-0.35228 2.0209436,2.0209436 0 0 0 -0.245073,-0.96081 z m 9.443721,2.09357 a 2.0209436,2.0209436 0 0 0 0.997704,0.26457 2.0209436,2.0209436 0 0 0 0.268743,-0.0202 l -0.409375,0.0794 1.127883,5.81356 a 1.3472958,1.3472958 0 0 0 -0.243671,0.34326 l -5.151438,-1.39805 a 2.0209436,2.0209436 0 0 0 0.05646,-0.46649 2.0209436,2.0209436 0 0 0 -0.354391,-1.13903 z m -12.543361,2.97362 5.180687,2.00098 a 2.0209436,2.0209436 0 0 0 0.374574,0.85497 l -4.38419,3.86828 a 1.3472958,1.3472958 0 0 0 -0.409389,-0.14759 l -1.552599,-5.76135 a 2.0209436,2.0209436 0 0 0 0.790917,-0.81529 z"
       id="path4681"
       inkscape:connector-curvature="0"
       inkscape:export-xdpi="96"
       inkscape:export-ydpi="96" />
    <g
       id="g5323"
       transform="matrix(1.3472958,0,0,1.3472958,-222.85234,206.14241)">
      <path
         inkscape:export-ydpi="96"
         inkscape:export-xdpi="96"
         inkscape:connector-curvature="0"
         id="path4681-3"
         d="m 175.14553,39.476684 a 1,1 0 0 0 -0.99994,0.999937 1,1 0 0 0 0.99994,0.99994 1,1 0 0 0 0.0419,-0.0016 l 0.57723,2.184878 a 1.5,1.5 0 0 0 -0.82838,0.650607 l -3.91242,-1.062467 a 1,1 0 0 0 -0.9896,-0.865064 1,1 0 0 0 -1.00046,0.99994 1,1 0 0 0 0.96893,0.998905 l 0.79634,4.103624 a 1.5,1.5 0 0 0 -0.7059,0.781349 l -2.53628,-0.655256 a 1,1 0 0 0 0.003,-0.05013 1,1 0 0 0 -0.99994,-0.999938 1,1 0 0 0 -0.99994,0.999938 1,1 0 0 0 0.99994,0.99994 1,1 0 0 0 0.86868,-0.506429 l 2.56367,0.662491 a 1.5,1.5 0 0 0 -0.005,0.100769 1.5,1.5 0 0 0 0.19999,0.744659 l -2.88871,3.225641 a 1,1 0 0 0 -0.57154,-0.179832 1,1 0 0 0 -0.99994,0.999937 1,1 0 0 0 0.99994,0.99994 1,1 0 0 0 0.86041,-0.492993 l 4.32842,1.175121 a 1.5,1.5 0 0 0 -0.0114,0.174667 1.5,1.5 0 0 0 0.29404,0.888836 l -1.80713,1.778185 a 1,1 0 0 0 -0.45682,-0.111622 1,1 0 0 0 -1.00045,0.999939 1,1 0 0 0 1.00045,0.99994 1,1 0 0 0 0.99994,-0.99994 1,1 0 0 0 -0.1912,-0.586009 l 1.78335,-1.75545 a 1.5,1.5 0 0 0 0.87799,0.285771 1.5,1.5 0 0 0 0.30489,-0.03256 l 1.11569,4.13825 a 1,1 0 0 0 -0.71262,0.95653 1,1 0 0 0 0.99994,1.000456 1,1 0 0 0 0.99994,-1.000456 1,1 0 0 0 -0.17157,-0.558623 l 3.24425,-2.862873 a 1.5,1.5 0 0 0 0.7922,0.273367 l 0.63976,2.372982 a 1,1 0 0 0 -0.50127,0.865066 1,1 0 0 0 0.99994,0.999937 1,1 0 0 0 0.99994,-0.999937 1,1 0 0 0 -0.99994,-0.99994 1,1 0 0 0 -0.0563,0.0021 l -0.61702,-2.289255 a 1.5,1.5 0 0 0 0.89038,-0.670761 l 3.89486,1.057302 a 1,1 0 0 0 0.99994,0.994254 1,1 0 0 0 0.99994,-1.000456 1,1 0 0 0 -0.99994,-0.99994 1,1 0 0 0 -0.29301,0.04496 l -0.8046,-4.144965 a 1.5,1.5 0 0 0 1.01596,-0.838192 l 2.56108,0.661458 a 1,1 0 0 0 -0.005,0.0987 1,1 0 0 0 0.99994,0.99994 1,1 0 0 0 0.99994,-0.99994 1,1 0 0 0 -0.99994,-0.999937 1,1 0 0 0 -0.84284,0.464053 l -2.58899,-0.668692 a 1.5,1.5 0 0 0 0.0114,-0.174667 1.5,1.5 0 0 0 -0.5178,-1.132229 l 3.12849,-2.761073 -0.0424,-0.04806 a 1,1 0 0 0 0.68523,0.273368 1,1 0 0 0 0.99994,-0.999937 1,1 0 0 0 -0.99994,-0.99994 1,1 0 0 0 -0.99581,0.925006 l -4.254,-1.428852 a 1.5,1.5 0 0 0 0.0786,-0.475423 1.5,1.5 0 0 0 -0.29353,-0.888836 l 1.726,-1.698604 a 1,1 0 0 0 0.53175,0.154514 1,1 0 0 0 0.99994,-0.99994 1,1 0 0 0 -0.99994,-0.999939 1,1 0 0 0 -0.99994,0.999939 1,1 0 0 0 0.14418,0.516248 l -1.72961,1.70222 a 1.5,1.5 0 0 0 -0.8785,-0.285768 1.5,1.5 0 0 0 -0.0724,0.0026 l -1.10484,-4.098449 a 1,1 0 0 0 0.4625,-0.843878 1,1 0 0 0 -0.99994,-0.999938 1,1 0 0 0 -0.99994,0.999938 1,1 0 0 0 0.10181,0.438735 l -3.26209,2.800346 a 1.5,1.5 0 0 0 -0.76585,-0.216008 l -0.59221,-2.240171 a 1,1 0 0 0 0.51418,-0.8723 1,1 0 0 0 -0.99994,-0.999944 z m 5.39864,1.884122 a 1,1 0 0 0 0.60461,0.205155 1,1 0 0 0 0.0997,-0.0057 l 1.08934,4.041613 a 1.5,1.5 0 0 0 -0.74363,0.607198 L 177.66213,44.6903 a 1.5,1.5 0 0 0 -0.31471,-0.583943 z m -9.56789,2.352828 3.78271,1.027327 a 1.5,1.5 0 0 0 -0.0429,0.347782 1.5,1.5 0 0 0 0.21446,0.769464 l -2.78794,2.613276 a 1.5,1.5 0 0 0 -0.65578,-0.15348 1.5,1.5 0 0 0 -0.2465,0.02119 l -0.78548,-4.050397 a 1,1 0 0 0 0.52142,-0.57516 z m 6.73395,1.489832 3.7021,1.429885 a 1.5,1.5 0 0 0 -0.0491,0.372589 1.5,1.5 0 0 0 0.13694,0.621668 l -2.34714,2.389518 a 2,2 0 0 0 -1.01958,-0.281639 2,2 0 0 0 -0.10852,0.0041 L 177.0746,46.31654 a 1.5,1.5 0 0 0 0.63562,-1.11311 z m -2.48408,1.010274 a 1.5,1.5 0 0 0 0.99012,0.374653 1.5,1.5 0 0 0 0.0434,-0.0016 l 0.93845,3.382223 a 2,2 0 0 0 -0.84646,0.862995 l -3.37189,-0.870756 a 1.5,1.5 0 0 0 0.007,-0.143145 1.5,1.5 0 0 0 -0.45734,-1.075902 z m 8.84287,1.681552 4.51703,1.518253 0.0196,-0.0584 a 1,1 0 0 0 0.12144,0.218075 l -0.14108,-0.159679 -3.23339,2.853571 a 1.5,1.5 0 0 0 -0.57206,-0.114205 1.5,1.5 0 0 0 -0.19637,0.01447 l -0.65422,-4.108794 a 1.5,1.5 0 0 0 0.13901,-0.163295 z m -2.00246,0.37982 a 1.5,1.5 0 0 0 0.79685,0.230994 1.5,1.5 0 0 0 0.64699,-0.148312 l 0.62735,3.941363 a 1.5,1.5 0 0 0 -0.58395,0.491958 l 0.0238,-0.09198 -3.44734,-0.890386 a 2,2 0 0 0 0.004,-0.07338 2,2 0 0 0 -0.35399,-1.131716 z m -9.35292,2.403988 -0.0238,0.09302 3.44733,0.890902 a 2,2 0 0 0 -0.004,0.07235 2,2 0 0 0 0.30024,1.050581 l -2.31769,2.35903 a 1.5,1.5 0 0 0 -0.7121,-0.179834 1.5,1.5 0 0 0 -0.62994,0.14056 l -0.62787,-3.941363 a 1.5,1.5 0 0 0 0.56741,-0.485241 z m -2.23346,0.248563 a 1.5,1.5 0 0 0 1.00666,0.390676 1.5,1.5 0 0 0 0.21394,-0.01705 l 0.65216,4.094324 a 1.5,1.5 0 0 0 -0.31316,0.450101 l -4.31653,-1.171504 a 1,1 0 0 0 0.003,-0.06563 1,1 0 0 0 -0.11938,-0.472321 z m 9.4356,1.711007 3.37189,0.871265 a 1.5,1.5 0 0 0 -0.007,0.143143 1.5,1.5 0 0 0 0.39584,1.012343 l -2.70423,2.535245 a 1.5,1.5 0 0 0 -0.92087,-0.318328 1.5,1.5 0 0 0 -0.0434,0.0016 l -0.93896,-3.381693 a 2,2 0 0 0 0.84697,-0.863513 z m -2.88509,0.763778 a 2,2 0 0 0 1.10277,0.333312 2,2 0 0 0 0.10956,-0.0041 l 0.94981,3.422531 a 1.5,1.5 0 0 0 -0.62218,0.998387 l -3.69073,-1.425753 a 1.5,1.5 0 0 0 0.0243,-0.261482 1.5,1.5 0 0 0 -0.1819,-0.713134 z m 7.00939,1.553911 a 1.5,1.5 0 0 0 0.74052,0.196369 1.5,1.5 0 0 0 0.19947,-0.01499 l -0.30385,0.05891 0.83715,4.314981 a 1,1 0 0 0 -0.18086,0.254765 l -3.82354,-1.037663 a 1.5,1.5 0 0 0 0.0419,-0.346233 1.5,1.5 0 0 0 -0.26304,-0.845426 z m -9.31003,2.207099 3.84525,1.48518 a 1.5,1.5 0 0 0 0.27802,0.634588 l -3.25407,2.871141 a 1,1 0 0 0 -0.30386,-0.109553 l -1.15238,-4.276225 a 1.5,1.5 0 0 0 0.58704,-0.605131 z"
         style="fill:url(#radialGradient5332);fill-opacity:1;stroke:none;stroke-width:0.26458332;stroke-linecap:round;stroke-linejoin:miter;stroke-miterlimit:4;stroke-dasharray:none;stroke-opacity:1;paint-order:markers fill stroke" />
    </g>
  </g>
</svg>
